<svg xmlns="http://www.w3.org/2000/svg" height="512pt" version="1.1" viewBox="0 0 512.00001 512" width="512pt">
<g id="surface1">
<path d="M 412.652344 235.792969 L 358.691406 262.773438 C 356.28125 242.902344 352.019531 224.335938 346.210938 207.605469 L 385.578125 148.550781 L 470.667969 120.1875 L 461.183594 91.738281 L 366.335938 123.355469 L 331.761719 175.214844 C 325.441406 164.007812 318.261719 154.246094 310.382812 146.210938 C 314.027344 138.34375 315.976562 129.707031 315.976562 120.957031 C 315.976562 102.859375 307.910156 86.625 295.195312 75.617188 C 319.273438 46.824219 354.308594 29.988281 391.414062 29.988281 L 450.929688 29.988281 L 450.929688 0 L 391.414062 0 C 342.925781 0 297.355469 23.042969 267.601562 62.113281 C 263.84375 61.375 259.96875 60.980469 256 60.980469 C 252.03125 60.980469 248.152344 61.375 244.398438 62.113281 C 214.640625 23.042969 169.074219 0 120.582031 0 L 61.070312 0 L 61.070312 29.992188 L 120.582031 29.992188 C 157.691406 29.992188 192.726562 46.824219 216.800781 75.621094 C 204.085938 86.625 196.019531 102.863281 196.019531 120.957031 C 196.019531 129.710938 197.96875 138.34375 201.617188 146.214844 C 193.734375 154.25 186.554688 164.007812 180.234375 175.214844 L 145.457031 123.050781 L 35.199219 91.546875 L 26.960938 120.382812 L 126.625 148.855469 L 165.789062 207.605469 C 159.980469 224.335938 155.71875 242.90625 153.308594 262.773438 L 99.347656 235.792969 L 63.902344 306.679688 L 0 364.773438 L 20.171875 386.964844 L 88.222656 325.101562 L 112.757812 276.027344 L 151.09375 295.195312 C 151.058594 297.085938 151.035156 298.984375 151.035156 300.894531 C 151.035156 322.96875 153.242188 344 157.308594 363.386719 L 91.058594 429.636719 L 91.058594 511.820312 L 121.046875 511.820312 L 121.046875 442.058594 L 166.609375 396.496094 C 184.941406 447.496094 217.78125 480.832031 256 480.832031 C 294.21875 480.832031 327.058594 447.496094 345.390625 396.496094 L 390.953125 442.058594 L 390.953125 511.820312 L 420.941406 511.820312 L 420.941406 429.636719 L 354.691406 363.386719 C 358.757812 344 360.964844 322.96875 360.964844 300.894531 C 360.964844 298.984375 360.941406 297.085938 360.90625 295.195312 L 399.242188 276.027344 L 423.777344 325.101562 L 491.828125 386.964844 L 512 364.773438 L 448.09375 306.679688 Z M 256 240.917969 C 233.410156 240.917969 211.425781 235.320312 191.785156 224.675781 C 201.398438 193.339844 223.828125 150.949219 256 150.949219 C 288.167969 150.949219 310.578125 193.265625 320.214844 224.675781 C 300.574219 235.320312 278.589844 240.917969 256 240.917969 Z M 285.988281 120.957031 C 285.988281 123.28125 285.710938 125.550781 285.203125 127.75 C 275.964844 123.324219 266.171875 120.957031 256 120.957031 C 245.828125 120.957031 236.035156 123.324219 226.796875 127.75 C 226.289062 125.550781 226.011719 123.28125 226.011719 120.957031 C 226.011719 104.421875 239.464844 90.96875 256 90.96875 C 272.535156 90.96875 285.988281 104.421875 285.988281 120.957031 Z M 205.546875 410.347656 C 189.734375 381.359375 181.027344 342.488281 181.027344 300.894531 C 181.027344 284.976562 182.304688 269.460938 184.765625 254.742188 C 202.410156 263.203125 221.417969 268.429688 241.003906 270.203125 L 241.003906 447.507812 C 228.101562 441.796875 215.6875 428.9375 205.546875 410.347656 Z M 306.453125 410.347656 C 296.3125 428.9375 283.898438 441.796875 270.996094 447.507812 L 270.996094 270.203125 C 290.578125 268.429688 309.585938 263.203125 327.234375 254.742188 C 329.695312 269.460938 330.972656 284.976562 330.972656 300.894531 C 330.972656 342.488281 322.265625 381.359375 306.453125 410.347656 Z M 306.453125 410.347656 " style=" stroke:none;fill-rule:nonzero;fill:rgb(0%,0%,0%);fill-opacity:1;" />
</g>
</svg>