<?xml version="1.0" encoding="iso-8859-1"?>
<!-- Generator: Adobe Illustrator 19.0.0, SVG Export Plug-In . SVG Version: 6.00 Build 0)  -->
<svg version="1.1" id="Capa_1" xmlns="http://www.w3.org/2000/svg" xmlns:xlink="http://www.w3.org/1999/xlink" x="0px" y="0px"
	 viewBox="0 0 512.001 512.001" style="enable-background:new 0 0 512.001 512.001;" xml:space="preserve">
<g>
	<g>
		<path d="M428.88,3.582c-3.418-2.884-7.932-4.117-12.344-3.366L301.763,19.737c-7.3,1.242-12.64,7.568-12.64,14.972v16.187h-26.835
			V15.187C262.288,6.8,255.489,0,247.102,0h-62.748c-8.387,0-15.187,6.8-15.187,15.187v38.946
			c-37.963,4.865-71.464,27.778-89.674,62.242c-3.919,7.415-1.083,16.603,6.332,20.523c2.263,1.196,4.69,1.762,7.082,1.762
			c5.449,0,10.717-2.941,13.44-8.095c12.924-24.459,36.193-41.106,62.82-45.732v24.16c-36.814,17.487-62.332,55.028-62.332,98.423
			v268.381c0,19.963,16.242,36.205,36.205,36.205h145.377c19.963,0,36.205-16.242,36.205-36.205V207.414
			c0-43.394-25.518-80.936-62.332-98.423V81.27h26.835v16.187c0,7.404,5.34,13.731,12.64,14.972l114.774,19.521
			c0.847,0.145,1.699,0.216,2.546,0.216c3.559,0,7.036-1.251,9.797-3.582c3.417-2.886,5.389-7.132,5.389-11.605V15.187
			C434.27,10.714,432.298,6.469,428.88,3.582z M199.539,30.373h32.375v68.149h-32.375V30.373z M294.246,475.795
			c0.001,3.216-2.615,5.832-5.831,5.832H143.039c-3.216,0-5.832-2.616-5.832-5.832v-92.513h157.039V475.795z M294.247,352.909
			H137.208v-75.046h157.039V352.909z M294.247,207.414v40.075H137.208v-40.075c0-43.296,35.224-78.52,78.52-78.52
			S294.247,164.119,294.247,207.414z M403.897,98.991l-84.4-14.356V47.53l84.4-14.356V98.991z"/>
	</g>
</g>
<g>
</g>
<g>
</g>
<g>
</g>
<g>
</g>
<g>
</g>
<g>
</g>
<g>
</g>
<g>
</g>
<g>
</g>
<g>
</g>
<g>
</g>
<g>
</g>
<g>
</g>
<g>
</g>
<g>
</g>
</svg>
