<svg height="459pt" viewBox="0 -51 459.00035 459" width="459pt" xmlns="http://www.w3.org/2000/svg"><path d="m458.101562 194.699219-70.601562-155.5c-1.605469-3.585938-5.167969-5.898438-9.101562-5.898438h-106c-5.015626-19.597656-22.671876-33.300781-42.898438-33.300781s-37.882812 13.703125-42.898438 33.300781h-106c-3.871093-.078125-7.425781 2.109375-9.101562 5.597657l-70.601562 155.402343c-.539063 1.40625-.8398442 2.894531-.898438 4.398438-.0546875 44.515625 35.984375 80.644531 80.5 80.699219 44.515625.054687 80.644531-35.984376 80.699219-80.5.011719-1.414063-.296875-2.816407-.898438-4.097657l-64.199219-141.5h90.097657c3.511719 16.839844 16.523437 30.089844 33.300781 33.898438v207.101562h-44.601562c-17.269532.167969-31.226563 14.128907-31.398438 31.398438v21c0 5.5 4.800781 9.601562 10.398438 9.601562h150.203124c5.5 0 10.398438-4.101562 10.398438-9.601562v-21c-.171875-17.269531-14.128906-31.230469-31.398438-31.398438h-43.601562v-207.101562c16.742188-3.875 29.722656-17.09375 33.300781-33.898438h90.097657l-64.199219 141.5c-.59375 1.285157-.898438 2.683594-.898438 4.097657 0 44.515624 36.085938 80.601562 80.597657 80.601562 44.515624 0 80.601562-36.085938 80.601562-80.601562.011719-1.449219-.296875-2.882813-.898438-4.199219zm-377.5-126.800781 55.097657 121.402343h-110.199219zm0 192c-30 0-55-22.597657-59.800781-50.597657h119.5c-4.699219 28-29.699219 50.597657-59.699219 50.597657zm213.898438 65.800781v10.601562h-131v-10.601562c.136719-6.238281 5.164062-11.261719 11.398438-11.398438h108.203124c6.238282.136719 11.261719 5.160157 11.398438 11.398438zm-65-257.300781c-13.363281 0-24.199219-10.832032-24.199219-24.199219 0-13.363281 10.835938-24.199219 24.199219-24.199219 13.367188 0 24.199219 10.835938 24.199219 24.199219-.011719 13.359375-10.839844 24.1875-24.199219 24.199219zm204 120.902343h-110.199219l55.097657-121.402343zm-55.101562 70.597657c-30 0-55-22.597657-59.796876-50.597657h119.5c-4.703124 28-29.703124 50.597657-59.703124 50.597657zm0 0"/></svg>