<svg id="Layer_3" enable-background="new 0 0 64 64" height="512" viewBox="0 0 64 64" width="512" xmlns="http://www.w3.org/2000/svg"><path d="m59 61v-5c0-.553-.447-1-1-1h-1v-34h1c.553 0 1-.447 1-1v-6-12c0-.553-.447-1-1-1h-52c-.553 0-1 .447-1 1v12 6c0 .553.447 1 1 1h1v34h-1c-.553 0-1 .447-1 1v5h-4v2h62v-2zm-52-42v-4h8v4zm8 6h2v26h-2zm1 30h-1v-2h3c.553 0 1-.447 1-1v-28c0-.553-.447-1-1-1h-3v-2h1c.553 0 1-.447 1-1v-5h30v5c0 .553.447 1 1 1h1v2h-3c-.553 0-1 .447-1 1v28c0 .553.447 1 1 1h3v2h-1c-.553 0-1 .447-1 1v5h-30v-5c0-.553-.447-1-1-1zm33-4h-2v-26h2zm0 6h8v4h-8zm6-2h-4v-34h4zm-6-36v-4h8v4zm-42-16h50v10h-50zm2 18h4v34h-4zm-2 36h8v4h-8z"/><path d="m32 5c-1.654 0-3 1.346-3 3s1.346 3 3 3 3-1.346 3-3-1.346-3-3-3zm0 4c-.552 0-1-.448-1-1s.448-1 1-1 1 .448 1 1-.448 1-1 1z"/><path d="m40 5c-1.654 0-3 1.346-3 3s1.346 3 3 3 3-1.346 3-3-1.346-3-3-3zm0 4c-.552 0-1-.448-1-1s.448-1 1-1 1 .448 1 1-.448 1-1 1z"/><path d="m24 5c-1.654 0-3 1.346-3 3s1.346 3 3 3 3-1.346 3-3-1.346-3-3-3zm0 4c-.552 0-1-.448-1-1s.448-1 1-1 1 .448 1 1-.448 1-1 1z"/><path d="m20.764 34h4.472v2h-4.472z" transform="matrix(.894 -.447 .447 .894 -13.224 13.981)"/><path d="m22 38.764h2v4.472h-2z" transform="matrix(.447 -.894 .894 .447 -23.957 43.236)"/><path d="m40 32.764h2v4.472h-2z" transform="matrix(.447 -.894 .894 .447 -8.641 56.019)"/><path d="m38.764 40h4.472v2h-4.472z" transform="matrix(.894 -.447 .447 .894 -14.007 22.664)"/></svg>