<svg id="Capa_1" enable-background="new 0 0 512 512" height="512" viewBox="0 0 512 512" width="512" xmlns="http://www.w3.org/2000/svg"><g><path d="m467 30h-92.971l-19.999-30h-196.058l-20 30h-92.972c-24.813 0-45 20.187-45 45v437h512v-437c0-24.813-20.187-45-45-45zm-195.332 201.881 27.587 250.119h-86.509l13.346-121h29.908v-30h-26.6l10.932-99.119 15.668-15.668zm-103.337-193.337 66.456 66.456-53.787 53.787-55.698-55.698zm87.669 45.243-53.787-53.787h107.574zm0 42.426 23.787 23.787-23.787 23.787-23.787-23.787zm21.213-21.213 66.457-66.457 43.028 64.545-55.698 55.699zm-247.213-30c0-8.271 6.729-15 15-15h72.972l-31.274 46.911 94.302 94.302 30-30 23.787 23.787-23.119 23.119-12.45 112.881h-18.218v30h14.909l-13.346 121h-152.563zm452 407h-152.563l-29.105-263.881-23.119-23.119 23.787-23.787 30 30 94.302-94.302-31.273-46.911h72.971c8.271 0 15 6.729 15 15z"/></g></svg>